<?xml version="1.0" encoding="UTF-8"?>
<svg enable-background="new 0 0 200 200" version="1.1" viewBox="0 0 200 200" xml:space="preserve" xmlns="http://www.w3.org/2000/svg">
<style type="text/css">
	.st0{fill:#FFFFFF;}
</style>
	<path class="st0" d="m102 111.1c-0.2 0.7-0.3 1.3-0.4 2-0.2 1.1-0.8 1.9-1.9 2.2-0.9 0.3-1.9 0.5-2.9 0.5-2.4 0.2-4.8 0.3-7.2 0.3-1.7 0-3.5 0-5.2-0.1-1.9-0.1-3.8-0.4-5.6-1.1-1.9-0.7-3.6-1.7-4.8-3.3-0.9-1.3-1.4-2.7-1.6-4.2-0.1-0.6-0.1-1.3-0.2-1.9 0 0.1-0.1 0.2-0.1 0.3-0.7 2.2-1.3 4.3-2 6.5-0.4 1.3-1.1 2.1-2.4 2.4s-2.7 0.6-4 0.8c-1.4 0.2-2.9 0.3-4.3 0.5-0.7 0.1-1.5 0.1-2.3 0.1-0.9 0-1.8 0-2.7 0.1-0.6 0-1.3 0.1-1.9 0.1-2 0-3.9 0-5.9-0.1-2.4-0.1-4.8-0.5-7.1-1.4-0.9-0.4-1.8-0.8-2.6-1.5-1.4-1.2-2-2.8-1.7-4.6 0.2-1.9 0.9-3.6 2.2-5 1.1-1.3 2.5-2.2 4.1-2.9 2.7-1.3 5.5-2 8.4-2.4 2.9-0.5 5.8-0.8 8.6-1.3 2.3-0.3 4.6-0.7 6.9-1.1 1-0.2 1.5-0.7 1.7-1.8 0.2-1.4-0.3-2.4-1.5-3.1-1-0.5-2-0.8-3.1-0.9-1.6-0.2-3.2-0.3-4.8-0.2-1.9 0.1-3.7 0.2-5.6 0.3-1.2 0.1-2.4 0.1-3.6 0.2-1.3 0.1-2.5 0.3-3.8 0.4h-0.8c-0.3-0.1-0.4-0.3-0.3-0.6 0.3-1 0.7-2.1 1.1-3.1 0.5-1.2 1.5-1.7 2.6-2 0.8-0.2 1.6-0.3 2.4-0.3 1.5-0.1 3.1-0.2 4.6-0.3h0.1c2.7 0 5.4-0.1 8.1-0.1 2.5 0 5.1 0.3 7.5 1.1 1.7 0.5 3.2 1.3 4.3 2.7 0.7 0.9 1.1 1.9 1.3 3 0.1 1 0.1 2-0.1 3 0 0.1 0 0.2 0.1 0.3 0.1-0.1 0.1-0.2 0.2-0.3 2.5-4 6-6.6 10.4-8.1 2-0.7 4.1-1.1 6.2-1.4 2.4-0.3 4.9-0.3 7.3-0.2 1.1 0 2.2 0 3.3 0.3 0.5 0.2 1 0.4 1.4 0.7 0.7 0.5 0.9 1.3 1 2.1 0.1 0.7 0.2 1.4 0.4 2.1 0.1 0.6-0.4 1.1-1 1.1-1.2-0.1-2.5-0.2-3.7-0.3-1.8-0.1-3.5-0.2-5.3-0.1-2.2 0-4.3 0.4-6.3 1.2-3.6 1.4-5.9 4-7.1 7.6-0.5 1.4-0.9 2.8-1.1 4.2-0.1 1-0.2 1.9 0 2.9 0.2 1.3 1 2.2 2.2 2.7s2.5 0.8 3.8 0.9c1.2 0.1 2.5 0.2 3.7 0.2s2.5-0.1 3.7-0.1c2.1-0.1 4.2-0.1 6.3-0.2h0.3c0-0.1-0.1-0.3-0.1-0.4-0.6-1.7-0.7-3.4-0.5-5.1 0.6-4.5 2.2-8.6 5.1-12.1 2-2.4 4.5-4.2 7.4-5.4 2.2-1 4.6-1.5 6.9-1.9 2.4-0.4 4.8-0.5 7.3-0.4 2.7 0.1 5.4 0.3 8 1 1.4 0.4 2.8 0.9 4 1.9s1.8 2.2 1.8 3.7v1.2l0.2-0.2c1.8-3 4.5-4.9 7.8-6.1 1.9-0.7 3.9-1.1 5.9-1.3 1.9-0.2 3.8-0.2 5.7-0.2 1.5 0 3 0.1 4.4 0.2 0.5 0 1.1 0.2 1.6 0.3 0.9 0.3 1.4 1.1 1.4 1.9 0 0.1 0 0.3-0.1 0.4-0.3 0.8-0.5 1.6-0.8 2.4s-1 1.2-1.8 1.1c-0.5-0.1-1-0.1-1.5-0.1-2.3 0-4.7-0.1-7-0.1-1.5 0-3.1 0.1-4.5 0.7-1.6 0.6-2.6 1.7-3.1 3.3-1.9 6.6-3.8 13.3-5.7 19.9-0.3 1-0.8 1.4-1.8 1.4h-6.7c-0.2 0-0.4 0-0.6-0.1-0.4-0.1-0.6-0.5-0.5-0.9 1.8-6 3.6-11.9 5.4-17.9 0-0.1 0.1-0.3 0.1-0.5-0.1 0.1-0.2 0.1-0.2 0.2-1.4 1.9-3.3 3.2-5.5 4.2s-4.5 1.6-6.8 1.9c-2.2 0.3-4.4 0.6-6.6 0.9-1.8 0.2-3.7 0.5-5.5 0.7-1.7 0.2-3.3 0.4-5 0.6h-0.2c-0.5 0.1-0.6 0.2-0.6 0.7 0.1 0.5 0.1 1 0.2 1.4 0.5 1.5 1.6 2.3 3.1 2.7 1.3 0.4 2.6 0.5 4 0.6 1 0 1.9 0.1 2.9 0.1s2-0.1 2.9-0.1c0.6 0 1.1-0.1 1.7-0.1 1.6-0.1 3.1-0.1 4.7-0.2 1.2-0.1 2.4-0.2 3.7-0.3h0.4c0.5 0.1 0.6 0.3 0.5 0.8-0.4 1.1-0.7 2.3-1.1 3.4-0.2 0.6-0.7 1-1.2 1.3-0.7 0.3-1.4 0.5-2.1 0.6-2.1 0.1-4.1 0.2-6.2 0.3-2.6 0.1-5.2 0.1-7.7 0-2.9-0.1-5.7-0.5-8.4-1.6-1.7-0.7-3.2-1.8-4.3-3.3l-0.3-0.3zm8.5-11.5h0.3c0.9-0.1 1.8-0.2 2.7-0.4 1.4-0.2 2.8-0.4 4.2-0.6s2.8-0.4 4.2-0.6c1.8-0.2 3.5-0.5 5.2-1 1.4-0.4 2.7-0.9 3.9-1.7 0.6-0.5 1.1-1.1 1.4-1.8 0.3-1.1 0-2-0.9-2.6-0.3-0.2-0.7-0.4-1.1-0.5-1.9-0.7-3.8-0.7-5.8-0.8-0.8 0-1.7 0.1-2.5 0.1-1.4 0.1-2.7 0.3-4.1 0.6-2.2 0.6-3.9 1.8-5.2 3.7-0.9 1.4-1.5 2.9-2 4.4-0.1 0.4-0.2 0.7-0.3 1.2zm-45.7 1.2h-0.3c-0.7 0.1-1.4 0.2-2.2 0.3-1.4 0.2-2.8 0.4-4.3 0.6-1.3 0.2-2.5 0.3-3.8 0.5s-2.6 0.3-3.8 0.5c-1 0.1-1.9 0.3-2.9 0.6-1.6 0.5-2.8 1.4-3.3 3-0.4 1.1-0.1 2.1 0.8 2.7 0.6 0.4 1.2 0.7 1.9 0.9 2.1 0.6 4.2 0.6 6.4 0.7 1.4 0 2.7 0 4.1-0.1l4.2-0.3c0.3 0 0.4-0.2 0.5-0.4 0.9-2.8 1.7-5.6 2.6-8.4 0-0.3 0-0.5 0.1-0.6z"/>
</svg>