<?xml version="1.0" encoding="UTF-8"?>
<svg enable-background="new 0 0 200 200" version="1.1" viewBox="0 0 200 200" xml:space="preserve" xmlns="http://www.w3.org/2000/svg">
<style type="text/css">
	.st0{fill:#FFFFFF;}
</style>
	<path class="st0" d="m135.1 93.3c2 0.1 4.1 0.2 6.1 0.3 5.1 0.3 10.3 0.6 15.4 0.9 3.8 0.2 7.5 0.5 11.3 0.7 4.6 0.3 8.6 4.7 8.7 9.3 0 4.1-1.6 7.2-5.2 9.2-1.5 0.9-3.1 1.1-4.8 1.1h-31.3c-0.7 0-1-0.1-0.9-0.9 0.1-2 0-4 0.1-6 0-0.3 0-0.5-0.2-0.8-0.1 0.4-0.1 0.7-0.2 1.1-0.6 2.2-1.8 3.8-3.7 4.9-1.8 1.1-3.7 1.7-5.8 1.6h-19.3c-4.8 0-8.4-2.8-9.7-7.4l-0.2-0.6c-0.7 1.3-1.2 2.8-2.1 4.1-1.9 2.6-4.5 3.9-7.7 3.9h-40-1.2v-22.8c2.9 0.2 5.8 0.4 8.8 0.6v1.1 11.2c0 0.8 0.2 1 1 1h30.6c1.7 0 2.6-0.8 2.3-2.2-0.2-0.9-0.8-1.3-1.6-1.4-1.8-0.2-3.7-0.3-5.5-0.5-5.9-0.5-11.8-0.8-17.6-1.5-4.1-0.5-7.4-3.1-8.1-7.7 0.9 0.1 1.7 0.1 2.6 0.2 6.2 0.5 12.3 1 18.5 1.5l11.4 0.9c3.5 0.3 5.9 2.3 7.7 5.3 0.4 0.6 0.6 1.2 1.1 1.9v-11.8c3.1 0.2 6 0.4 9 0.6v1 10.4c0 2.3 1.1 3.4 3.4 3.4h14.1c2.4 0 3.4-1.1 3.5-3.4v-8.8-1.2c3 0.2 5.9 0.4 8.9 0.6v12.7h1.1 30.2c0.5 0 1-0.1 1.5-0.2 0.9-0.2 1.2-0.9 1.1-1.7 0-0.8-0.5-1.5-1.3-1.6-2-0.2-3.9-0.4-5.9-0.5-6-0.5-12-0.8-18-1.5-3.9-0.5-6.6-2.7-8-6.5 0-0.1-0.1-0.2-0.1-0.3v-0.2z"/>
	<path class="st0" d="m93.6 81.1v8.8h-64.1c0.5-0.8 0.9-1.4 1.3-2.1 1-1.6 2.1-3.3 3.2-4.9 0.9-1.3 2.1-1.9 3.6-1.9h15 0.9v7.4c0.1 0 0.2 0 0.3 0.1 0.1-0.3 0.2-0.6 0.3-0.8 1.6-4.1 5-6.7 9.4-6.7 9.8-0.1 19.6 0 29.5 0 0.1 0.1 0.3 0.1 0.6 0.1z"/>
	<path class="st0" d="m125.3 90v-8.8h9v7.7h0.2c0.1-0.3 0.2-0.5 0.3-0.8 1.5-4.5 5.1-7.1 9.9-7.1h31 1v8.9c-17.2 0.1-34.3 0.1-51.4 0.1z"/>
	<path class="st0" d="m39.1 91.7c-1.8 2.8-3.5 5.4-5.2 8.1-3.1 4.8-6.3 9.7-9.4 14.5-0.2 0.3-0.6 0.6-0.9 0.6h-10.2c0.2-0.4 0.3-0.6 0.5-0.9 4.9-7.6 9.8-15.2 14.7-22.8 0.3-0.5 0.6-0.6 1.2-0.5 3 0.3 6.1 0.6 9.3 1z"/>
	<path class="st0" d="m95.3 81.2h9v8.9h-1.3-6.9c-0.4 0-0.8 0.1-0.8-0.5v-8.4z"/>
	<path class="st0" d="m186.7 85.3c0 2.1-1.7 3.7-3.8 3.7s-3.8-1.6-3.8-3.7 1.7-3.7 3.8-3.7 3.8 1.6 3.8 3.7zm-6.6 0c0 1.6 1.2 2.9 2.9 2.9 1.6 0 2.8-1.3 2.8-2.9s-1.2-3-2.8-3c-1.7 0-2.9 1.4-2.9 3zm2.2 1.9h-0.9v-3.7c0.3 0 0.8-0.1 1.4-0.1 0.7 0 1 0.1 1.3 0.3 0.2 0.2 0.4 0.4 0.4 0.8s-0.3 0.7-0.8 0.9c0.4 0.1 0.5 0.4 0.6 0.9 0.1 0.6 0.2 0.8 0.3 0.9h-0.9c-0.1-0.1-0.2-0.4-0.3-0.9-0.1-0.4-0.3-0.6-0.8-0.6h-0.4v1.5zm0.1-2.1h0.4c0.5 0 0.9-0.2 0.9-0.5s-0.2-0.6-0.8-0.6h-0.5v1.1z"/>
</svg>