<?xml version="1.0" encoding="UTF-8"?>
<svg enable-background="new 0 0 200 200" version="1.1" viewBox="0 0 200 200" xml:space="preserve" xmlns="http://www.w3.org/2000/svg">
<style type="text/css">
	.st0{fill:#FFFFFF;}
</style>
	<path class="st0" d="m111.9 54c0.7 0.2 1.4 0.3 2.1 0.6 1.9 0.9 2.9 2.6 3.4 4.6 0.8 3.1 0.6 6.1-0.7 9-1.6 3.6-2.8 7.3-4 11.1-2.4 8-4.2 16.1-6.2 24.2-1.4 5.5-2.5 11.1-4.4 16.5-1.1 3-2.3 5.9-4.3 8.5-0.7 0.9-1.4 1.7-2.3 2.4-1.2 1.1-2.7 1.8-4.4 2-2 0.2-3.9 0.3-5.9-0.1-2.3-0.5-4.3-1.7-6.1-3.3-3.1-2.7-5.6-6-7.7-9.5-2.4-3.8-4.6-7.7-7-11.6-0.8-1.3-1.7-2.6-2.8-3.6-0.4-0.4-1-0.7-1.5-1-0.7-0.4-1.4-0.2-2 0.3-0.9 0.8-1.4 1.8-1.8 2.9l-2.4 7.2c-1 2.9-1.9 5.8-3 8.6s-2.6 5.5-5 7.6c-1.8 1.6-3.9 2.5-6.4 2.6-2.8 0.1-5.2-1-7.4-2.7-2-1.6-3.6-3.6-5.1-5.6-2.7-3.9-4.8-8.1-6.7-12.4-2.3-5.4-4.4-10.9-6.6-16.3-0.4-1-0.8-2.1-1.3-3.1-0.8-1.7-1.5-3.3-1.7-5.2v-1.4-0.1c0.3-2.2 1.6-3.8 3.4-5 2-1.3 4.2-2 6.6-2.2 2.2-0.2 4 0.6 5.1 2.6 0.4 0.7 0.8 1.4 1 2.1 0.5 1.7 1 3.5 1.3 5.2 0.9 4.5 1.7 9 3 13.4 0.7 2.6 1.5 5.2 2.8 7.5 0.5 0.9 1.1 1.8 1.8 2.5 1.6 1.8 4.3 0.8 5.3-0.5 1.2-1.5 2-3.2 2.5-5 1.3-4.5 2-9.1 2.4-13.7 0.3-3.2 0.5-6.5 0.8-9.7 0.3-2.9 0.9-5.7 2.1-8.3 0.9-1.9 2-3.5 3.9-4.6 1.3-0.8 2.7-1.2 4.2-1.3 2.5-0.2 4.6 0.6 6.3 2.5 1.1 1.4 1.9 2.9 2.6 4.6 1.3 3.1 2.1 6.3 3 9.5 1.3 4.6 2.6 9.1 4.3 13.5 1.5 3.7 3.2 7.2 5.8 10.2 1.2 1.4 2.6 2.6 4.4 3.3 1.2 0.5 2.5 0.7 3.8 0.4 1.6-0.3 2.6-1.5 3.5-2.8 1.5-2.4 2.3-5.2 2.8-8 0.7-3.6 1.2-7.3 1.7-10.9 0.5-3.7 1-7.4 1.5-11.2 0.5-4.3 1-8.5 1.5-12.8 0.3-2.3 0.7-4.5 1.5-6.6 1.3-3.5 3.7-5.9 7.5-6.6 0.7-0.1 1.4-0.2 2.2-0.3h2.6z"/>
	<path class="st0" d="m191.3 119c-0.1 0.9-0.2 1.8-0.4 2.6-0.5 3-1.8 5.6-4.1 7.7-2.2 2-4.7 3.1-7.6 3.4-1.8 0.2-3.7 0.3-5.6 0.1-6.5-0.6-11.2-5.1-12.3-11.5-0.5-3-0.5-6.1 0.6-9 1.9-5.4 5.8-8.6 11.4-9.6 3.3-0.6 6.5-0.2 9.6 1.2 3.2 1.4 5.5 3.9 6.9 7 0.8 1.8 1.2 3.6 1.3 5.5 0 0.1 0 0.3 0.1 0.4 0.1 0.8 0.1 1.5 0.1 2.2zm-6.9-1v-0.8c-0.1-3-1.2-5.6-3.5-7.6s-5.5-2.2-7.6-1.1-3.5 2.7-4.5 4.9c-0.8 1.8-1 3.8-0.8 5.7 0.1 2.2 0.8 4.2 2.2 5.9 3.2 4 9.4 3.8 12.4-0.3 1.3-2 1.9-4.2 1.8-6.7z"/>
	<path class="st0" d="m131 108.1v-18.5c0-1.5 1.3-2.9 2.6-3 1.9-0.1 3.3 1.1 3.4 2.7 0.1 0.8 0.1 1.5 0.1 2.3 0 3.6 0 7.2 0.1 10.9 0 2 0.2 4 1 5.9s1.9 2.5 4 1.5c1-0.5 1.8-1.3 2.5-2.1 2.2-2.5 4.4-5 6.8-7.3 1-1 2.2-1.6 3.6-1.5 1.5 0.1 2.5 1.5 1.7 2.9-0.5 0.9-1.2 1.7-1.8 2.5-1.4 1.7-2.8 3.4-4.2 5.1-0.5 0.6-0.8 1.2-1.2 1.9-0.8 1.5-0.8 2.9 0.2 4.3 2 2.8 3.9 5.6 5.8 8.5 1.1 1.6 2.1 3.1 3.1 4.7 0.5 0.8 0.9 1.7 0.8 2.7-0.1 0.9-0.6 1.3-1.5 1.4-2 0.1-3.7-0.7-5.2-2s-2.6-3-3.7-4.6c-1.2-1.7-2.4-3.5-3.7-5.2-0.6-0.8-1.3-1.4-2.1-1.9-1.5-0.9-3.8-0.2-4.7 1.1-0.7 1-1 2.1-1.1 3.3-0.2 1.8-0.3 3.6-0.5 5.4-0.1 1.1-0.2 2.2-1 3-0.9 0.9-2 1.2-3.2 0.6-1.1-0.5-1.8-1.3-1.8-2.6-0.1-1.4-0.2-2.8-0.2-4.1 0.2-6 0.2-11.9 0.2-17.9z"/>
	<path class="st0" d="m116.3 117v-8.8c0-1.4 0-2.8 0.1-4.1 0-0.8 0.3-1.4 0.8-2 0.4-0.6 1-0.9 1.7-0.8h1.6c0.8 0 1.4 0.4 1.7 1.1 0.2 0.6 0.5 1.3 0.5 1.9 0.1 7.7 0.1 15.4 0.1 23.1 0 1-0.1 2-0.2 3.1-0.1 1.6-1.4 2.8-2.9 2.7h-0.9c-1.3 0-2-0.7-2.3-2-0.1-0.6-0.2-1.3-0.2-1.9 0.1-4.2 0.1-8.2 0-12.3 0.1 0 0 0 0 0z"/>
	<path class="st0" d="m119.4 96.1c-0.2 0-0.7 0-1.1-0.1-1.6-0.2-2.5-1.7-2.3-3.5 0.2-1.6 1.1-2.5 2.7-2.6 0.8-0.1 1.6 0 2.3 0.2 1.1 0.2 1.7 1 1.9 2 0.2 1.2 0.1 2.4-0.9 3.3-0.6 0.6-1.5 0.7-2.6 0.7z"/>
</svg>